<svg width="16" height="16" viewBox="0 0 16 16" fill="none" xmlns="http://www.w3.org/2000/svg">
<path d="M6.41722 4.8921C6.09133 5.38492 5.33339 6.09258 5.33339 6.66667C5.3334 7.33149 6.04182 8.67025 6.96187 9.57895C7.88191 10.4876 8.66028 11 9.3334 11C9.79166 11 10.022 9.89474 11.246 9.89474C12.164 9.89474 13.3334 10.8947 13.6667 12C13.8579 12.6337 13.1093 13.2059 12.27 13.6042C11.6119 13.9165 10.8741 14.0288 10.149 13.959C8.82467 13.8316 6.93651 13.3082 4.66673 11.1579C2.06572 8.33333 1.9344 6.48292 2.00006 4.6759C2.06573 2.86888 3.66673 2 4.20779 2C4.70974 2 6.28302 3.35896 6.50782 4.43128C6.5413 4.59099 6.50722 4.75598 6.41722 4.8921Z" fill="#BFC1C7"/>
</svg>
