<svg width="16" height="16" viewBox="0 0 16 16" fill="none" xmlns="http://www.w3.org/2000/svg">
<g clip-path="url(#clip0_1_57)">
<path d="M15.1111 8.04358C15.1111 4.09207 11.9275 0.888916 8.00092 0.888916C4.07252 0.889805 0.888916 4.09207 0.888916 8.04447C0.888916 11.6147 3.48948 14.5743 6.88817 15.1111V10.1118H5.08395V8.04447H6.88994V6.46689C6.88994 4.67422 7.95203 3.68412 9.57583 3.68412C10.3544 3.68412 11.1676 3.82366 11.1676 3.82366V5.58344H10.2709C9.3883 5.58344 9.11278 6.13537 9.11278 6.70152V8.04358H11.0841L10.7695 10.1109H9.11189V15.1102C12.5106 14.5734 15.1111 11.6138 15.1111 8.04358Z" fill="#BFC1C7"/>
</g>
<defs>
<clipPath id="clip0_1_57">
<rect width="16" height="16" fill="white"/>
</clipPath>
</defs>
</svg>
