<svg width="16" height="16" viewBox="0 0 16 16" fill="none" xmlns="http://www.w3.org/2000/svg">
<g clip-path="url(#clip0_1_56)">
<path d="M7.99825 5.62865C6.69248 5.62865 5.62687 6.69426 5.62687 8.00003C5.62687 9.3058 6.69248 10.3714 7.99825 10.3714C9.30402 10.3714 10.3696 9.3058 10.3696 8.00003C10.3696 6.69426 9.30402 5.62865 7.99825 5.62865ZM15.1106 8.00003C15.1106 7.01803 15.1195 6.04493 15.0644 5.06471C15.0092 3.92616 14.7495 2.9157 13.9169 2.08314C13.0826 1.2488 12.0739 0.990847 10.9353 0.935699C9.95335 0.88055 8.98024 0.889445 8.00003 0.889445C7.01803 0.889445 6.04493 0.88055 5.06471 0.935699C3.92616 0.990847 2.9157 1.25058 2.08314 2.08314C1.2488 2.91748 0.990847 3.92616 0.935699 5.06471C0.88055 6.04671 0.889445 7.01981 0.889445 8.00003C0.889445 8.98024 0.88055 9.95512 0.935699 10.9353C0.990847 12.0739 1.25058 13.0843 2.08314 13.9169C2.91748 14.7513 3.92616 15.0092 5.06471 15.0644C6.04671 15.1195 7.01981 15.1106 8.00003 15.1106C8.98202 15.1106 9.95512 15.1195 10.9353 15.0644C12.0739 15.0092 13.0844 14.7495 13.9169 13.9169C14.7513 13.0826 15.0092 12.0739 15.0644 10.9353C15.1213 9.95512 15.1106 8.98202 15.1106 8.00003ZM7.99825 11.6487C5.97911 11.6487 4.34956 10.0192 4.34956 8.00003C4.34956 5.98088 5.97911 4.35134 7.99825 4.35134C10.0174 4.35134 11.6469 5.98088 11.6469 8.00003C11.6469 10.0192 10.0174 11.6487 7.99825 11.6487ZM11.7964 5.05404C11.3249 5.05404 10.9442 4.67333 10.9442 4.20191C10.9442 3.73048 11.3249 3.34977 11.7964 3.34977C12.2678 3.34977 12.6485 3.73048 12.6485 4.20191C12.6486 4.31385 12.6267 4.42472 12.5839 4.52817C12.5411 4.63162 12.4784 4.72561 12.3992 4.80477C12.3201 4.88392 12.2261 4.94668 12.1226 4.98946C12.0192 5.03223 11.9083 5.05418 11.7964 5.05404Z" fill="#BFC1C7"/>
</g>
<defs>
<clipPath id="clip0_1_56">
<rect width="16" height="16" fill="white"/>
</clipPath>
</defs>
</svg>
