<svg width="16" height="16" viewBox="0 0 16 16" fill="none" xmlns="http://www.w3.org/2000/svg">
<g clip-path="url(#clip0_1_58)">
<path d="M9.28247 7.86641L7.48567 7.02801C7.32887 6.95521 7.20007 7.03681 7.20007 7.21041V8.78961C7.20007 8.96321 7.32887 9.04481 7.48567 8.97201L9.28167 8.13361C9.43927 8.06001 9.43927 7.94001 9.28247 7.86641ZM8.00007 0.320007C3.75847 0.320007 0.320068 3.75841 0.320068 8.00001C0.320068 12.2416 3.75847 15.68 8.00007 15.68C12.2417 15.68 15.6801 12.2416 15.6801 8.00001C15.6801 3.75841 12.2417 0.320007 8.00007 0.320007ZM8.00007 11.12C4.06887 11.12 4.00007 10.7656 4.00007 8.00001C4.00007 5.23441 4.06887 4.88001 8.00007 4.88001C11.9313 4.88001 12.0001 5.23441 12.0001 8.00001C12.0001 10.7656 11.9313 11.12 8.00007 11.12Z" fill="#BFC1C7"/>
</g>
<defs>
<clipPath id="clip0_1_58">
<rect width="16" height="16" fill="white"/>
</clipPath>
</defs>
</svg>
